<svg width="112" height="29" fill="none" xmlns="http://www.w3.org/2000/svg"><path d="M1.752 24a.351.351 0 01-.216-.072.351.351 0 01-.072-.216V7.488a.26.26 0 01.072-.192.298.298 0 01.216-.096H4.56c.08 0 .144.032.192.096a.228.228 0 01.096.192v6.72c0 .048.016.08.048.096.032 0 .064-.016.096-.048l5.544-6.888a.455.455 0 01.36-.168h3.168c.128 0 .208.04.24.12.032.064.016.144-.048.24L8.904 14.4c-.048.064-.056.12-.024.168l5.664 9.096c.032.096.048.152.048.168 0 .112-.08.168-.24.168h-3.168c-.16 0-.272-.064-.336-.192l-4.272-6.912c-.016-.032-.04-.048-.072-.048-.032 0-.064.016-.096.048l-1.512 1.896a.368.368 0 00-.048.144v4.776c0 .08-.032.152-.096.216A.26.26 0 014.56 24H1.752zm26.4-14.184a.3.3 0 01-.097.216.26.26 0 01-.192.072h-7.872c-.08 0-.12.04-.12.12v3.72c0 .08.04.12.12.12h5.16c.08 0 .144.032.192.096a.228.228 0 01.096.192v2.328c0 .08-.032.152-.096.216a.26.26 0 01-.192.072h-5.16c-.08 0-.12.04-.12.12v3.888c0 .08.04.12.12.12h7.872c.08 0 .144.032.192.096a.228.228 0 01.096.192v2.328c0 .08-.032.152-.096.216a.26.26 0 01-.192.072H16.775a.351.351 0 01-.216-.072.351.351 0 01-.072-.216V7.488a.26.26 0 01.072-.192.298.298 0 01.216-.096h11.088c.08 0 .144.032.192.096a.228.228 0 01.096.192v2.328zm6.887 14.16a.351.351 0 01-.216-.072.351.351 0 01-.072-.216v-6.072a.334.334 0 00-.024-.144l-4.944-9.936a.368.368 0 01-.048-.144c0-.128.088-.192.264-.192h3.024a.34.34 0 01.336.216l3 6.384c.048.096.096.096.144 0l3-6.384a.34.34 0 01.336-.216h3.072c.112 0 .184.032.216.096.048.048.048.128 0 .24l-4.992 9.936a.334.334 0 00-.024.144v6.072c0 .08-.032.152-.096.216a.26.26 0 01-.192.072H35.04zm21.776-14.16c0 .08-.032.152-.096.216a.26.26 0 01-.192.072h-7.848c-.08 0-.12.04-.12.12v3.72c0 .08.04.12.12.12h5.16c.08 0 .144.032.192.096a.228.228 0 01.096.192v2.328c0 .08-.032.152-.096.216a.26.26 0 01-.192.072h-5.16c-.08 0-.12.04-.12.12v6.624c0 .08-.032.152-.096.216a.26.26 0 01-.192.072h-2.808a.351.351 0 01-.216-.072.351.351 0 01-.072-.216V7.488a.26.26 0 01.072-.192.298.298 0 01.216-.096h11.064c.08 0 .144.032.192.096a.228.228 0 01.096.192v2.328zM67.41 24c-.16 0-.264-.08-.312-.24l-.72-2.352c-.032-.064-.072-.096-.12-.096h-5.904c-.048 0-.088.032-.12.096l-.696 2.352c-.048.16-.152.24-.312.24h-3.048c-.096 0-.168-.024-.216-.072-.048-.064-.056-.152-.024-.264L61.122 7.44c.048-.16.152-.24.312-.24h3.768c.16 0 .264.08.312.24l5.184 16.224a.267.267 0 01.024.12c0 .144-.088.216-.264.216H67.41zm-6.312-5.448c-.016.096.016.144.096.144h4.224c.096 0 .128-.048.096-.144l-2.16-7.128c-.016-.064-.04-.088-.072-.072-.032 0-.056.024-.072.072l-2.112 7.128zM73.119 24a.351.351 0 01-.216-.072.351.351 0 01-.072-.216V7.488a.26.26 0 01.072-.192.298.298 0 01.216-.096h2.808c.08 0 .144.032.192.096a.228.228 0 01.096.192v16.224c0 .08-.032.152-.096.216a.26.26 0 01-.192.072H73.12z" fill="#25BDDE"/><circle cx="105.5" cy="13.5" r="3.5" fill="#25BDDE"/><path fill="#25BDDE" d="M79 20h33v4H79z"/></svg>