<svg width="205" height="18" viewBox="0 0 205 18" fill="none" xmlns="http://www.w3.org/2000/svg">
<path d="M19.41 0.859999L16.2 17H11.76L12.06 15.41C10.72 16.63 9.07 17.24 7.11 17.24C5.85 17.24 4.69 16.95 3.63 16.37C2.57 15.79 1.72 14.96 1.08 13.88C0.46 12.78 0.15 11.49 0.15 10.01C0.15 8.23 0.54 6.63 1.32 5.21C2.12 3.77 3.2 2.65 4.56 1.85C5.92 1.03 7.42 0.62 9.06 0.62C11.54 0.62 13.29 1.43 14.31 3.05L14.73 0.859999H19.41ZM8.55 13.37C9.47 13.37 10.29 13.15 11.01 12.71C11.73 12.25 12.29 11.62 12.69 10.82C13.09 10.02 13.29 9.1 13.29 8.06C13.29 6.96 12.96 6.09 12.3 5.45C11.66 4.81 10.76 4.49 9.6 4.49C8.68 4.49 7.86 4.72 7.14 5.18C6.42 5.62 5.86 6.24 5.46 7.04C5.06 7.84 4.86 8.76 4.86 9.8C4.86 10.9 5.18 11.77 5.82 12.41C6.48 13.05 7.39 13.37 8.55 13.37ZM43.9929 0.62C45.7529 0.62 47.1529 1.1 48.1929 2.06C49.2329 3 49.7529 4.34 49.7529 6.08C49.7529 6.72 49.6829 7.38 49.5429 8.06L47.7729 17H43.0929L44.8029 8.39C44.8829 7.99 44.9229 7.58 44.9229 7.16C44.9229 6.34 44.7029 5.72 44.2629 5.3C43.8429 4.88 43.2129 4.67 42.3729 4.67C40.1129 4.67 38.7029 6.02 38.1429 8.72L36.4929 17H31.8129L33.5229 8.39C33.6029 7.99 33.6429 7.59 33.6429 7.19C33.6429 6.37 33.4229 5.75 32.9829 5.33C32.5629 4.89 31.9329 4.67 31.0929 4.67C28.8329 4.67 27.4129 6.04 26.8329 8.78L25.2129 17H20.5329L23.7429 0.859999H28.1829L27.8229 2.54C29.2229 1.26 30.9129 0.62 32.8929 0.62C34.0129 0.62 35.0029 0.85 35.8629 1.31C36.7429 1.75 37.4029 2.4 37.8429 3.26C38.6229 2.4 39.5329 1.75 40.5729 1.31C41.6129 0.85 42.7529 0.62 43.9929 0.62ZM71.7635 0.859999L68.5535 17H64.1135L64.4135 15.41C63.0735 16.63 61.4235 17.24 59.4635 17.24C58.2035 17.24 57.0435 16.95 55.9835 16.37C54.9235 15.79 54.0735 14.96 53.4335 13.88C52.8135 12.78 52.5035 11.49 52.5035 10.01C52.5035 8.23 52.8935 6.63 53.6735 5.21C54.4735 3.77 55.5535 2.65 56.9135 1.85C58.2735 1.03 59.7735 0.62 61.4135 0.62C63.8935 0.62 65.6435 1.43 66.6635 3.05L67.0835 0.859999H71.7635ZM60.9035 13.37C61.8235 13.37 62.6435 13.15 63.3635 12.71C64.0835 12.25 64.6435 11.62 65.0435 10.82C65.4435 10.02 65.6435 9.1 65.6435 8.06C65.6435 6.96 65.3135 6.09 64.6535 5.45C64.0135 4.81 63.1135 4.49 61.9535 4.49C61.0335 4.49 60.2135 4.72 59.4935 5.18C58.7735 5.62 58.2135 6.24 57.8135 7.04C57.4135 7.84 57.2135 8.76 57.2135 9.8C57.2135 10.9 57.5335 11.77 58.1735 12.41C58.8335 13.05 59.7435 13.37 60.9035 13.37ZM88.5464 3.68L78.5864 13.4H86.8664L86.1464 17H71.7464L72.3164 14.18L82.2764 4.46H74.5064L75.2264 0.859999H89.0864L88.5464 3.68ZM108.56 0.859999L105.35 17H100.91L101.21 15.41C99.8704 16.63 98.2204 17.24 96.2604 17.24C95.0004 17.24 93.8404 16.95 92.7804 16.37C91.7204 15.79 90.8704 14.96 90.2304 13.88C89.6104 12.78 89.3004 11.49 89.3004 10.01C89.3004 8.23 89.6904 6.63 90.4704 5.21C91.2704 3.77 92.3504 2.65 93.7104 1.85C95.0704 1.03 96.5704 0.62 98.2104 0.62C100.69 0.62 102.44 1.43 103.46 3.05L103.88 0.859999H108.56ZM97.7004 13.37C98.6204 13.37 99.4404 13.15 100.16 12.71C100.88 12.25 101.44 11.62 101.84 10.82C102.24 10.02 102.44 9.1 102.44 8.06C102.44 6.96 102.11 6.09 101.45 5.45C100.81 4.81 99.9104 4.49 98.7504 4.49C97.8304 4.49 97.0104 4.72 96.2904 5.18C95.5704 5.62 95.0104 6.24 94.6104 7.04C94.2104 7.84 94.0104 8.76 94.0104 9.8C94.0104 10.9 94.3304 11.77 94.9704 12.41C95.6304 13.05 96.5404 13.37 97.7004 13.37ZM122.283 0.62C124.083 0.62 125.513 1.1 126.573 2.06C127.633 3 128.163 4.35 128.163 6.11C128.163 6.77 128.093 7.42 127.953 8.06L126.153 17H121.473L123.213 8.36C123.293 8.02 123.333 7.65 123.333 7.25C123.333 6.41 123.103 5.77 122.643 5.33C122.183 4.89 121.493 4.67 120.573 4.67C119.373 4.67 118.373 5.02 117.573 5.72C116.793 6.4 116.263 7.43 115.983 8.81L114.363 17H109.683L112.893 0.859999H117.333L116.973 2.6C118.413 1.28 120.183 0.62 122.283 0.62ZM132.555 17.24C131.755 17.24 131.095 16.99 130.575 16.49C130.055 15.97 129.795 15.32 129.795 14.54C129.795 13.62 130.095 12.87 130.695 12.29C131.295 11.71 132.035 11.42 132.915 11.42C133.715 11.42 134.365 11.67 134.865 12.17C135.385 12.67 135.645 13.32 135.645 14.12C135.645 15.02 135.335 15.77 134.715 16.37C134.115 16.95 133.395 17.24 132.555 17.24ZM146.592 17.24C144.932 17.24 143.482 16.94 142.242 16.34C141.002 15.74 140.042 14.9 139.362 13.82C138.702 12.72 138.372 11.45 138.372 10.01C138.372 8.23 138.792 6.63 139.632 5.21C140.472 3.79 141.642 2.67 143.142 1.85C144.642 1.03 146.332 0.62 148.212 0.62C149.932 0.62 151.412 0.979999 152.652 1.7C153.912 2.4 154.852 3.4 155.472 4.7L151.512 6.68C150.812 5.22 149.612 4.49 147.912 4.49C146.992 4.49 146.162 4.72 145.422 5.18C144.702 5.62 144.132 6.24 143.712 7.04C143.312 7.84 143.112 8.75 143.112 9.77C143.112 10.87 143.442 11.75 144.102 12.41C144.762 13.05 145.682 13.37 146.862 13.37C148.582 13.37 149.902 12.65 150.822 11.21L154.272 13.37C153.492 14.59 152.422 15.54 151.062 16.22C149.722 16.9 148.232 17.24 146.592 17.24ZM164.021 17.24C162.401 17.24 160.971 16.94 159.731 16.34C158.511 15.74 157.561 14.9 156.881 13.82C156.221 12.72 155.891 11.45 155.891 10.01C155.891 8.23 156.311 6.63 157.151 5.21C157.991 3.79 159.151 2.67 160.631 1.85C162.111 1.03 163.781 0.62 165.641 0.62C167.281 0.62 168.711 0.92 169.931 1.52C171.151 2.12 172.091 2.97 172.751 4.07C173.431 5.15 173.771 6.41 173.771 7.85C173.771 9.63 173.351 11.23 172.511 12.65C171.691 14.07 170.531 15.19 169.031 16.01C167.551 16.83 165.881 17.24 164.021 17.24ZM164.321 13.37C165.221 13.37 166.031 13.15 166.751 12.71C167.471 12.25 168.031 11.62 168.431 10.82C168.831 10.02 169.031 9.1 169.031 8.06C169.031 6.96 168.711 6.09 168.071 5.45C167.431 4.81 166.531 4.49 165.371 4.49C164.451 4.49 163.631 4.72 162.911 5.18C162.191 5.62 161.631 6.24 161.231 7.04C160.831 7.84 160.631 8.76 160.631 9.8C160.631 10.9 160.951 11.77 161.591 12.41C162.251 13.05 163.161 13.37 164.321 13.37ZM198.68 0.62C200.44 0.62 201.84 1.1 202.88 2.06C203.92 3 204.44 4.34 204.44 6.08C204.44 6.72 204.37 7.38 204.23 8.06L202.46 17H197.78L199.49 8.39C199.57 7.99 199.61 7.58 199.61 7.16C199.61 6.34 199.39 5.72 198.95 5.3C198.53 4.88 197.9 4.67 197.06 4.67C194.8 4.67 193.39 6.02 192.83 8.72L191.18 17H186.5L188.21 8.39C188.29 7.99 188.33 7.59 188.33 7.19C188.33 6.37 188.11 5.75 187.67 5.33C187.25 4.89 186.62 4.67 185.78 4.67C183.52 4.67 182.1 6.04 181.52 8.78L179.9 17H175.22L178.43 0.859999H182.87L182.51 2.54C183.91 1.26 185.6 0.62 187.58 0.62C188.7 0.62 189.69 0.85 190.55 1.31C191.43 1.75 192.09 2.4 192.53 3.26C193.31 2.4 194.22 1.75 195.26 1.31C196.3 0.85 197.44 0.62 198.68 0.62Z" fill="#FFB800"/>
</svg>
