<svg width="185" height="24" viewBox="0 0 185 24" fill="none" xmlns="http://www.w3.org/2000/svg">
<path d="M23.53 6.62C25.29 6.62 26.69 7.1 27.73 8.06C28.77 9 29.29 10.34 29.29 12.08C29.29 12.72 29.22 13.38 29.08 14.06L27.31 23H22.63L24.34 14.39C24.42 13.99 24.46 13.58 24.46 13.16C24.46 12.34 24.24 11.72 23.8 11.3C23.38 10.88 22.75 10.67 21.91 10.67C19.65 10.67 18.24 12.02 17.68 14.72L16.03 23H11.35L13.06 14.39C13.14 13.99 13.18 13.59 13.18 13.19C13.18 12.37 12.96 11.75 12.52 11.33C12.1 10.89 11.47 10.67 10.63 10.67C8.37 10.67 6.95 12.04 6.37 14.78L4.75 23H0.07L3.28 6.86H7.72L7.36 8.54C8.76 7.26 10.45 6.62 12.43 6.62C13.55 6.62 14.54 6.85 15.4 7.31C16.28 7.75 16.94 8.4 17.38 9.26C18.16 8.4 19.07 7.75 20.11 7.31C21.15 6.85 22.29 6.62 23.53 6.62ZM51.3006 6.86L48.0906 23H43.6506L43.9506 21.41C42.6106 22.63 40.9606 23.24 39.0006 23.24C37.7406 23.24 36.5806 22.95 35.5206 22.37C34.4606 21.79 33.6106 20.96 32.9706 19.88C32.3506 18.78 32.0406 17.49 32.0406 16.01C32.0406 14.23 32.4306 12.63 33.2106 11.21C34.0106 9.77 35.0906 8.65 36.4506 7.85C37.8106 7.03 39.3106 6.62 40.9506 6.62C43.4306 6.62 45.1806 7.43 46.2006 9.05L46.6206 6.86H51.3006ZM40.4406 19.37C41.3606 19.37 42.1806 19.15 42.9006 18.71C43.6206 18.25 44.1806 17.62 44.5806 16.82C44.9806 16.02 45.1806 15.1 45.1806 14.06C45.1806 12.96 44.8506 12.09 44.1906 11.45C43.5506 10.81 42.6506 10.49 41.4906 10.49C40.5706 10.49 39.7506 10.72 39.0306 11.18C38.3106 11.62 37.7506 12.24 37.3506 13.04C36.9506 13.84 36.7506 14.76 36.7506 15.8C36.7506 16.9 37.0706 17.77 37.7106 18.41C38.3706 19.05 39.2806 19.37 40.4406 19.37ZM58.3035 23.24C56.9035 23.24 55.5735 23.09 54.3135 22.79C53.0735 22.47 52.1035 22.06 51.4035 21.56L53.2035 18.17C53.9035 18.63 54.7535 19 55.7535 19.28C56.7735 19.56 57.7935 19.7 58.8135 19.7C59.8735 19.7 60.6635 19.57 61.1835 19.31C61.7035 19.03 61.9635 18.64 61.9635 18.14C61.9635 17.74 61.7335 17.45 61.2735 17.27C60.8135 17.09 60.0735 16.9 59.0535 16.7C57.8935 16.48 56.9335 16.24 56.1735 15.98C55.4335 15.72 54.7835 15.3 54.2235 14.72C53.6835 14.12 53.4135 13.31 53.4135 12.29C53.4135 10.51 54.1535 9.12 55.6335 8.12C57.1335 7.12 59.0935 6.62 61.5135 6.62C62.6335 6.62 63.7235 6.74 64.7835 6.98C65.8435 7.22 66.7435 7.55 67.4835 7.97L65.8035 11.39C64.4835 10.57 62.8935 10.16 61.0335 10.16C60.0135 10.16 59.2335 10.31 58.6935 10.61C58.1735 10.91 57.9135 11.29 57.9135 11.75C57.9135 12.17 58.1435 12.48 58.6035 12.68C59.0635 12.86 59.8335 13.06 60.9135 13.28C62.0535 13.5 62.9835 13.74 63.7035 14C64.4435 14.24 65.0835 14.65 65.6235 15.23C66.1635 15.81 66.4335 16.6 66.4335 17.6C66.4335 19.4 65.6735 20.79 64.1535 21.77C62.6535 22.75 60.7035 23.24 58.3035 23.24ZM74.721 17.3C74.681 17.46 74.661 17.68 74.661 17.96C74.661 19 75.231 19.52 76.371 19.52C76.991 19.52 77.621 19.33 78.261 18.95L78.951 22.28C77.911 22.92 76.571 23.24 74.931 23.24C73.411 23.24 72.191 22.84 71.271 22.04C70.351 21.24 69.891 20.14 69.891 18.74C69.891 18.34 69.941 17.87 70.041 17.33L71.331 10.82H68.841L69.561 7.22H72.051L72.831 3.29H77.511L76.731 7.22H80.751L80.031 10.82H76.011L74.721 17.3ZM98.4201 13.73C98.4201 14.47 98.3301 15.29 98.1501 16.19H85.7901C85.9501 18.39 87.3401 19.49 89.9601 19.49C90.7801 19.49 91.5601 19.36 92.3001 19.1C93.0601 18.84 93.7201 18.47 94.2801 17.99L96.2301 21.08C95.3301 21.8 94.3001 22.34 93.1401 22.7C91.9801 23.06 90.7601 23.24 89.4801 23.24C87.8201 23.24 86.3601 22.95 85.1001 22.37C83.8601 21.77 82.9001 20.92 82.2201 19.82C81.5601 18.72 81.2301 17.45 81.2301 16.01C81.2301 14.23 81.6301 12.63 82.4301 11.21C83.2501 9.77 84.3801 8.65 85.8201 7.85C87.2601 7.03 88.9001 6.62 90.7401 6.62C92.3001 6.62 93.6501 6.91 94.7901 7.49C95.9501 8.07 96.8401 8.9 97.4601 9.98C98.1001 11.06 98.4201 12.31 98.4201 13.73ZM90.5301 10.13C89.4301 10.13 88.5001 10.43 87.7401 11.03C86.9801 11.61 86.4401 12.42 86.1201 13.46H94.1301C94.1301 12.42 93.8001 11.61 93.1401 11.03C92.5001 10.43 91.6301 10.13 90.5301 10.13ZM106.998 8.78C107.698 8.02 108.538 7.47 109.518 7.13C110.518 6.79 111.688 6.62 113.028 6.62L112.188 10.94C111.628 10.9 111.268 10.88 111.108 10.88C109.688 10.88 108.548 11.23 107.688 11.93C106.848 12.63 106.278 13.72 105.978 15.2L104.418 23H99.738L102.948 6.86H107.388L106.998 8.78ZM120.914 23.24C119.254 23.24 117.804 22.94 116.564 22.34C115.324 21.74 114.364 20.9 113.684 19.82C113.024 18.72 112.694 17.45 112.694 16.01C112.694 14.23 113.114 12.63 113.954 11.21C114.794 9.79 115.964 8.67 117.464 7.85C118.964 7.03 120.654 6.62 122.534 6.62C124.254 6.62 125.734 6.98 126.974 7.7C128.234 8.4 129.174 9.4 129.794 10.7L125.834 12.68C125.134 11.22 123.934 10.49 122.234 10.49C121.314 10.49 120.484 10.72 119.744 11.18C119.024 11.62 118.454 12.24 118.034 13.04C117.634 13.84 117.434 14.75 117.434 15.77C117.434 16.87 117.764 17.75 118.424 18.41C119.084 19.05 120.004 19.37 121.184 19.37C122.904 19.37 124.224 18.65 125.144 17.21L128.594 19.37C127.814 20.59 126.744 21.54 125.384 22.22C124.044 22.9 122.554 23.24 120.914 23.24ZM149.504 6.86L146.294 23H141.854L142.154 21.41C140.814 22.63 139.164 23.24 137.204 23.24C135.944 23.24 134.784 22.95 133.724 22.37C132.664 21.79 131.814 20.96 131.174 19.88C130.554 18.78 130.244 17.49 130.244 16.01C130.244 14.23 130.634 12.63 131.414 11.21C132.214 9.77 133.294 8.65 134.654 7.85C136.014 7.03 137.514 6.62 139.154 6.62C141.634 6.62 143.384 7.43 144.404 9.05L144.824 6.86H149.504ZM138.644 19.37C139.564 19.37 140.384 19.15 141.104 18.71C141.824 18.25 142.384 17.62 142.784 16.82C143.184 16.02 143.384 15.1 143.384 14.06C143.384 12.96 143.054 12.09 142.394 11.45C141.754 10.81 140.854 10.49 139.694 10.49C138.774 10.49 137.954 10.72 137.234 11.18C136.514 11.62 135.954 12.24 135.554 13.04C135.154 13.84 134.954 14.76 134.954 15.8C134.954 16.9 135.274 17.77 135.914 18.41C136.574 19.05 137.484 19.37 138.644 19.37ZM157.887 8.78C158.587 8.02 159.427 7.47 160.407 7.13C161.407 6.79 162.577 6.62 163.917 6.62L163.077 10.94C162.517 10.9 162.157 10.88 161.997 10.88C160.577 10.88 159.437 11.23 158.577 11.93C157.737 12.63 157.167 13.72 156.867 15.2L155.307 23H150.627L153.837 6.86H158.277L157.887 8.78ZM184.133 0.739999L179.693 23H175.253L175.583 21.38C174.223 22.62 172.573 23.24 170.633 23.24C169.373 23.24 168.213 22.95 167.153 22.37C166.093 21.79 165.243 20.96 164.603 19.88C163.983 18.78 163.673 17.49 163.673 16.01C163.673 14.23 164.063 12.63 164.843 11.21C165.643 9.77 166.723 8.65 168.083 7.85C169.443 7.03 170.943 6.62 172.583 6.62C173.763 6.62 174.793 6.82 175.673 7.22C176.573 7.62 177.283 8.21 177.803 8.99L179.453 0.739999H184.133ZM172.073 19.37C172.993 19.37 173.813 19.15 174.533 18.71C175.253 18.25 175.813 17.62 176.213 16.82C176.613 16.02 176.813 15.1 176.813 14.06C176.813 12.96 176.483 12.09 175.823 11.45C175.183 10.81 174.283 10.49 173.123 10.49C172.203 10.49 171.383 10.72 170.663 11.18C169.943 11.62 169.383 12.24 168.983 13.04C168.583 13.84 168.383 14.76 168.383 15.8C168.383 16.9 168.703 17.77 169.343 18.41C170.003 19.05 170.913 19.37 172.073 19.37Z" fill="#FF5C00"/>
</svg>
