<svg width="200" height="29" viewBox="0 0 200 29" fill="none" xmlns="http://www.w3.org/2000/svg">
<path d="M28.71 0.999999L24.54 22H19.98L22.44 9.52L14.43 19.78H12.27L7.95 9.4L5.43 22H0.87L5.07 0.999999H9.03L14.28 14.08L24.54 0.999999H28.71ZM37.6523 22.24C36.0323 22.24 34.6023 21.94 33.3623 21.34C32.1423 20.74 31.1923 19.9 30.5123 18.82C29.8523 17.72 29.5223 16.45 29.5223 15.01C29.5223 13.23 29.9423 11.63 30.7823 10.21C31.6223 8.79 32.7823 7.67 34.2623 6.85C35.7423 6.03 37.4123 5.62 39.2723 5.62C40.9123 5.62 42.3423 5.92 43.5623 6.52C44.7823 7.12 45.7223 7.97 46.3823 9.07C47.0623 10.15 47.4023 11.41 47.4023 12.85C47.4023 14.63 46.9823 16.23 46.1423 17.65C45.3223 19.07 44.1623 20.19 42.6623 21.01C41.1823 21.83 39.5123 22.24 37.6523 22.24ZM37.9523 18.37C38.8523 18.37 39.6623 18.15 40.3823 17.71C41.1023 17.25 41.6623 16.62 42.0623 15.82C42.4623 15.02 42.6623 14.1 42.6623 13.06C42.6623 11.96 42.3423 11.09 41.7023 10.45C41.0623 9.81 40.1623 9.49 39.0023 9.49C38.0823 9.49 37.2623 9.72 36.5423 10.18C35.8223 10.62 35.2623 11.24 34.8623 12.04C34.4623 12.84 34.2623 13.76 34.2623 14.8C34.2623 15.9 34.5823 16.77 35.2223 17.41C35.8823 18.05 36.7923 18.37 37.9523 18.37ZM61.4513 5.62C63.2513 5.62 64.6813 6.1 65.7413 7.06C66.8013 8 67.3313 9.35 67.3313 11.11C67.3313 11.77 67.2613 12.42 67.1213 13.06L65.3213 22H60.6413L62.3813 13.36C62.4613 13.02 62.5013 12.65 62.5013 12.25C62.5013 11.41 62.2713 10.77 61.8113 10.33C61.3513 9.89 60.6613 9.67 59.7413 9.67C58.5413 9.67 57.5413 10.02 56.7413 10.72C55.9613 11.4 55.4313 12.43 55.1513 13.81L53.5313 22H48.8513L52.0613 5.86H56.5013L56.1413 7.6C57.5813 6.28 59.3513 5.62 61.4513 5.62ZM87.2892 12.73C87.2892 13.47 87.1992 14.29 87.0192 15.19H74.6592C74.8192 17.39 76.2092 18.49 78.8292 18.49C79.6492 18.49 80.4292 18.36 81.1692 18.1C81.9292 17.84 82.5892 17.47 83.1492 16.99L85.0992 20.08C84.1992 20.8 83.1692 21.34 82.0092 21.7C80.8492 22.06 79.6292 22.24 78.3492 22.24C76.6892 22.24 75.2292 21.95 73.9692 21.37C72.7292 20.77 71.7692 19.92 71.0892 18.82C70.4292 17.72 70.0992 16.45 70.0992 15.01C70.0992 13.23 70.4992 11.63 71.2992 10.21C72.1192 8.77 73.2492 7.65 74.6892 6.85C76.1292 6.03 77.7692 5.62 79.6092 5.62C81.1692 5.62 82.5192 5.91 83.6592 6.49C84.8192 7.07 85.7092 7.9 86.3292 8.98C86.9692 10.06 87.2892 11.31 87.2892 12.73ZM79.3992 9.13C78.2992 9.13 77.3692 9.43 76.6092 10.03C75.8492 10.61 75.3092 11.42 74.9892 12.46H82.9992C82.9992 11.42 82.6692 10.61 82.0092 10.03C81.3692 9.43 80.4992 9.13 79.3992 9.13ZM107.544 5.86L96.8041 23.08C95.6441 24.96 94.5141 26.26 93.4141 26.98C92.3341 27.7 91.0041 28.06 89.4241 28.06C88.5841 28.06 87.7641 27.93 86.9641 27.67C86.1441 27.41 85.5041 27.07 85.0441 26.65L87.2041 23.29C87.9241 23.95 88.7841 24.28 89.7841 24.28C90.3841 24.28 90.9041 24.13 91.3441 23.83C91.7841 23.53 92.2341 23.02 92.6941 22.3L92.8441 22.03L89.1241 5.86H93.8041L96.2041 16.84L102.924 5.86H107.544ZM122.807 11.17H127.247L125.507 19.81C124.447 20.63 123.217 21.26 121.817 21.7C120.417 22.14 118.967 22.36 117.467 22.36C115.367 22.36 113.537 21.98 111.977 21.22C110.417 20.46 109.207 19.39 108.347 18.01C107.507 16.63 107.087 15.04 107.087 13.24C107.087 10.86 107.637 8.71 108.737 6.79C109.837 4.87 111.387 3.37 113.387 2.29C115.387 1.19 117.687 0.64 120.287 0.64C122.287 0.64 124.017 0.949999 125.477 1.57C126.957 2.19 128.147 3.1 129.047 4.3L125.567 7.12C124.867 6.3 124.077 5.71 123.197 5.35C122.317 4.97 121.277 4.78 120.077 4.78C118.477 4.78 117.067 5.14 115.847 5.86C114.627 6.56 113.677 7.53 112.997 8.77C112.337 10.01 112.007 11.4 112.007 12.94C112.007 14.56 112.527 15.85 113.567 16.81C114.627 17.75 116.137 18.22 118.097 18.22C119.337 18.22 120.497 17.97 121.577 17.47L122.807 11.17ZM136.531 7.78C137.231 7.02 138.071 6.47 139.051 6.13C140.051 5.79 141.221 5.62 142.561 5.62L141.721 9.94C141.161 9.9 140.801 9.88 140.641 9.88C139.221 9.88 138.081 10.23 137.221 10.93C136.381 11.63 135.811 12.72 135.511 14.2L133.951 22H129.271L132.481 5.86H136.921L136.531 7.78ZM161.517 5.86L158.307 22H153.867L154.167 20.41C152.827 21.63 151.177 22.24 149.217 22.24C147.957 22.24 146.797 21.95 145.737 21.37C144.677 20.79 143.827 19.96 143.187 18.88C142.567 17.78 142.257 16.49 142.257 15.01C142.257 13.23 142.647 11.63 143.427 10.21C144.227 8.77 145.307 7.65 146.667 6.85C148.027 6.03 149.527 5.62 151.167 5.62C153.647 5.62 155.397 6.43 156.417 8.05L156.837 5.86H161.517ZM150.657 18.37C151.577 18.37 152.397 18.15 153.117 17.71C153.837 17.25 154.397 16.62 154.797 15.82C155.197 15.02 155.397 14.1 155.397 13.06C155.397 11.96 155.067 11.09 154.407 10.45C153.767 9.81 152.867 9.49 151.707 9.49C150.787 9.49 149.967 9.72 149.247 10.18C148.527 10.62 147.967 11.24 147.567 12.04C147.167 12.84 146.967 13.76 146.967 14.8C146.967 15.9 147.287 16.77 147.927 17.41C148.587 18.05 149.497 18.37 150.657 18.37ZM186.1 5.62C187.86 5.62 189.26 6.1 190.3 7.06C191.34 8 191.86 9.34 191.86 11.08C191.86 11.72 191.79 12.38 191.65 13.06L189.88 22H185.2L186.91 13.39C186.99 12.99 187.03 12.58 187.03 12.16C187.03 11.34 186.81 10.72 186.37 10.3C185.95 9.88 185.32 9.67 184.48 9.67C182.22 9.67 180.81 11.02 180.25 13.72L178.6 22H173.92L175.63 13.39C175.71 12.99 175.75 12.59 175.75 12.19C175.75 11.37 175.53 10.75 175.09 10.33C174.67 9.89 174.04 9.67 173.2 9.67C170.94 9.67 169.52 11.04 168.94 13.78L167.32 22H162.64L165.85 5.86H170.29L169.93 7.54C171.33 6.26 173.02 5.62 175 5.62C176.12 5.62 177.11 5.85 177.97 6.31C178.85 6.75 179.51 7.4 179.95 8.26C180.73 7.4 181.64 6.75 182.68 6.31C183.72 5.85 184.86 5.62 186.1 5.62ZM196.235 22.24C195.435 22.24 194.775 21.99 194.255 21.49C193.735 20.97 193.475 20.32 193.475 19.54C193.475 18.62 193.775 17.87 194.375 17.29C194.975 16.71 195.715 16.42 196.595 16.42C197.395 16.42 198.045 16.67 198.545 17.17C199.065 17.67 199.325 18.32 199.325 19.12C199.325 20.02 199.015 20.77 198.395 21.37C197.795 21.95 197.075 22.24 196.235 22.24Z" fill="#FF0000"/>
</svg>
