<svg width="113" height="30" viewBox="0 0 113 30" fill="none" xmlns="http://www.w3.org/2000/svg">
<path d="M13.56 2C16.18 2 18.2 2.58 19.62 3.74C21.06 4.88 21.78 6.48 21.78 8.54C21.78 10.3 21.36 11.84 20.52 13.16C19.7 14.46 18.52 15.46 16.98 16.16C15.46 16.86 13.66 17.21 11.58 17.21H6.9L5.76 23H0.87L5.07 2H13.56ZM11.79 13.25C13.41 13.25 14.66 12.88 15.54 12.14C16.42 11.4 16.86 10.34 16.86 8.96C16.86 7.96 16.52 7.21 15.84 6.71C15.18 6.21 14.22 5.96 12.96 5.96H9.15L7.68 13.25H11.79ZM41.8104 6.86L38.6004 23H34.1604L34.4604 21.41C33.1204 22.63 31.4704 23.24 29.5104 23.24C28.2504 23.24 27.0904 22.95 26.0304 22.37C24.9704 21.79 24.1204 20.96 23.4804 19.88C22.8604 18.78 22.5504 17.49 22.5504 16.01C22.5504 14.23 22.9404 12.63 23.7204 11.21C24.5204 9.77 25.6004 8.65 26.9604 7.85C28.3204 7.03 29.8204 6.62 31.4604 6.62C33.9404 6.62 35.6904 7.43 36.7104 9.05L37.1304 6.86H41.8104ZM30.9504 19.37C31.8704 19.37 32.6904 19.15 33.4104 18.71C34.1304 18.25 34.6904 17.62 35.0904 16.82C35.4904 16.02 35.6904 15.1 35.6904 14.06C35.6904 12.96 35.3604 12.09 34.7004 11.45C34.0604 10.81 33.1604 10.49 32.0004 10.49C31.0804 10.49 30.2604 10.72 29.5404 11.18C28.8204 11.62 28.2604 12.24 27.8604 13.04C27.4604 13.84 27.2604 14.76 27.2604 15.8C27.2604 16.9 27.5804 17.77 28.2204 18.41C28.8804 19.05 29.7904 19.37 30.9504 19.37ZM62.1633 6.86L51.4233 24.08C50.2633 25.96 49.1333 27.26 48.0333 27.98C46.9533 28.7 45.6233 29.06 44.0433 29.06C43.2033 29.06 42.3833 28.93 41.5833 28.67C40.7633 28.41 40.1233 28.07 39.6633 27.65L41.8233 24.29C42.5433 24.95 43.4033 25.28 44.4033 25.28C45.0033 25.28 45.5233 25.13 45.9633 24.83C46.4033 24.53 46.8533 24.02 47.3133 23.3L47.4633 23.03L43.7433 6.86H48.4233L50.8233 17.84L57.5433 6.86H62.1633Z" fill="#253B80"/>
<path d="M73.853 2C76.473 2 78.493 2.58 79.913 3.74C81.353 4.88 82.073 6.48 82.073 8.54C82.073 10.3 81.653 11.84 80.813 13.16C79.993 14.46 78.813 15.46 77.273 16.16C75.753 16.86 73.953 17.21 71.873 17.21H67.193L66.053 23H61.163L65.363 2H73.853ZM72.083 13.25C73.703 13.25 74.953 12.88 75.833 12.14C76.713 11.4 77.153 10.34 77.153 8.96C77.153 7.96 76.813 7.21 76.133 6.71C75.473 6.21 74.513 5.96 73.253 5.96H69.443L67.973 13.25H72.083ZM102.103 6.86L98.8934 23H94.4534L94.7534 21.41C93.4134 22.63 91.7634 23.24 89.8034 23.24C88.5434 23.24 87.3834 22.95 86.3234 22.37C85.2634 21.79 84.4134 20.96 83.7734 19.88C83.1534 18.78 82.8434 17.49 82.8434 16.01C82.8434 14.23 83.2334 12.63 84.0134 11.21C84.8134 9.77 85.8934 8.65 87.2534 7.85C88.6134 7.03 90.1134 6.62 91.7534 6.62C94.2334 6.62 95.9834 7.43 97.0034 9.05L97.4234 6.86H102.103ZM91.2434 19.37C92.1634 19.37 92.9834 19.15 93.7034 18.71C94.4234 18.25 94.9834 17.62 95.3834 16.82C95.7834 16.02 95.9834 15.1 95.9834 14.06C95.9834 12.96 95.6534 12.09 94.9934 11.45C94.3534 10.81 93.4534 10.49 92.2934 10.49C91.3734 10.49 90.5534 10.72 89.8334 11.18C89.1134 11.62 88.5534 12.24 88.1534 13.04C87.7534 13.84 87.5534 14.76 87.5534 15.8C87.5534 16.9 87.8734 17.77 88.5134 18.41C89.1734 19.05 90.0834 19.37 91.2434 19.37ZM107.666 0.739999H112.346L107.906 23H103.226L107.666 0.739999Z" fill="#179BD7"/>
</svg>
