<svg width="71" height="23" viewBox="0 0 71 23" fill="none" xmlns="http://www.w3.org/2000/svg">
<path d="M23.01 0.999999L9.72 22H4.95L0.0600002 0.999999H5.07L8.46 15.97L17.97 0.999999H23.01ZM24.7634 0.999999H29.6534L25.4534 22H20.5634L24.7634 0.999999ZM37.7271 22.36C36.0671 22.36 34.4771 22.14 32.9571 21.7C31.4371 21.26 30.2171 20.7 29.2971 20.02L31.2771 16.27C32.2371 16.97 33.3171 17.51 34.5171 17.89C35.7171 18.27 36.9471 18.46 38.2071 18.46C39.5471 18.46 40.6071 18.24 41.3871 17.8C42.1671 17.36 42.5571 16.76 42.5571 16C42.5571 15.38 42.2471 14.91 41.6271 14.59C41.0071 14.25 40.0171 13.89 38.6571 13.51C37.2971 13.11 36.1871 12.73 35.3271 12.37C34.4671 11.99 33.7171 11.43 33.0771 10.69C32.4571 9.95 32.1471 8.97 32.1471 7.75C32.1471 6.33 32.5371 5.08 33.3171 4C34.1171 2.92 35.2371 2.09 36.6771 1.51C38.1371 0.929999 39.8271 0.64 41.7471 0.64C43.1671 0.64 44.5071 0.799999 45.7671 1.12C47.0271 1.42 48.1071 1.86 49.0071 2.44L47.1771 6.16C46.3971 5.62 45.5171 5.22 44.5371 4.96C43.5571 4.68 42.5371 4.54 41.4771 4.54C40.0971 4.54 39.0071 4.78 38.2071 5.26C37.4071 5.74 37.0071 6.36 37.0071 7.12C37.0071 7.58 37.1771 7.97 37.5171 8.29C37.8571 8.59 38.2871 8.84 38.8071 9.04C39.3271 9.22 40.0571 9.44 40.9971 9.7C42.3371 10.06 43.4371 10.43 44.2971 10.81C45.1571 11.17 45.8871 11.71 46.4871 12.43C47.1071 13.13 47.4171 14.06 47.4171 15.22C47.4171 16.66 47.0171 17.92 46.2171 19C45.4171 20.06 44.2871 20.89 42.8271 21.49C41.3671 22.07 39.6671 22.36 37.7271 22.36ZM64.478 17.5H54.698L51.968 22H46.778L60.368 0.999999H65.168L70.328 22H65.468L64.478 17.5ZM63.668 13.81L61.898 5.71L56.948 13.81H63.668Z" fill="#253B80"/>
</svg>
